<svg width="227" height="161" viewBox="0 0 227 161" fill="none" xmlns="http://www.w3.org/2000/svg">
<path d="M171.35 74.3829L138.542 41.3162L149.392 30.4662L171.35 52.4245L215.267 8.50788L226.117 19.6162L171.35 74.3829ZM83.0002 77.7412C71.6335 77.7412 62.3335 74.1245 55.1002 66.8912C47.8668 59.6579 44.2502 50.3579 44.2502 38.9912C44.2502 27.6245 47.8668 18.3245 55.1002 11.0912C62.3335 3.85788 71.6335 0.241211 83.0002 0.241211C94.3668 0.241211 103.667 3.85788 110.9 11.0912C118.133 18.3245 121.75 27.6245 121.75 38.9912C121.75 50.3579 118.133 59.6579 110.9 66.8912C103.667 74.1245 94.3668 77.7412 83.0002 77.7412ZM0.333496 160.666V136.383C0.333496 130.355 1.84044 124.887 4.85433 119.979C7.86822 115.07 12.2168 111.411 17.9002 109C30.8168 103.316 42.2989 99.312 52.3463 96.987C62.3938 94.662 72.5979 93.4995 82.9588 93.4995C93.3197 93.4995 103.495 94.662 113.483 96.987C123.472 99.312 134.925 103.316 147.842 109C153.525 111.583 157.917 115.286 161.017 120.108C164.117 124.93 165.667 130.355 165.667 136.383V160.666H0.333496ZM15.8335 145.166H150.167V136.383C150.167 133.627 149.392 131.001 147.842 128.504C146.292 126.006 144.225 124.155 141.642 122.95C129.414 117.266 119.081 113.52 110.642 111.712C102.203 109.904 92.9891 109 83.0002 109C73.0113 109 63.7543 109.904 55.2293 111.712C46.7043 113.52 36.3279 117.266 24.1002 122.95C21.5168 124.155 19.4932 126.006 18.0293 128.504C16.5654 131.001 15.8335 133.627 15.8335 136.383V145.166ZM83.0002 62.2412C89.7168 62.2412 95.271 60.0454 99.6627 55.6537C104.054 51.262 106.25 45.7079 106.25 38.9912C106.25 32.2745 104.054 26.7204 99.6627 22.3287C95.271 17.937 89.7168 15.7412 83.0002 15.7412C76.2835 15.7412 70.7293 17.937 66.3377 22.3287C61.946 26.7204 59.7502 32.2745 59.7502 38.9912C59.7502 45.7079 61.946 51.262 66.3377 55.6537C70.7293 60.0454 76.2835 62.2412 83.0002 62.2412Z" fill="#94B43B"/>
</svg>
