<svg width="248" height="248" viewBox="0 0 248 248" fill="none" xmlns="http://www.w3.org/2000/svg">
<mask id="mask0_682_3615" style="mask-type:alpha" maskUnits="userSpaceOnUse" x="0" y="0" width="248" height="248">
<rect width="248" height="248" fill="#D9D9D9"/>
</mask>
<g mask="url(#mask0_682_3615)">
<path d="M179.8 130.716L168.95 119.866L190.392 98.1662L168.95 76.7245L179.8 65.8745L201.5 87.3162L222.942 65.8745L233.792 76.7245L212.35 98.1662L233.792 119.866L222.942 130.716L201.5 109.275L179.8 130.716ZM93.0002 123.741C81.6335 123.741 72.3335 120.125 65.1002 112.891C57.8668 105.658 54.2502 96.3579 54.2502 84.9912C54.2502 73.6245 57.8668 64.3245 65.1002 57.0912C72.3335 49.8579 81.6335 46.2412 93.0002 46.2412C104.367 46.2412 113.667 49.8579 120.9 57.0912C128.133 64.3245 131.75 73.6245 131.75 84.9912C131.75 96.3579 128.133 105.658 120.9 112.891C113.667 120.125 104.367 123.741 93.0002 123.741ZM10.3335 206.666V182.383C10.3335 176.355 11.8404 170.887 14.8543 165.979C17.8682 161.07 22.2168 157.411 27.9002 155C40.8168 149.316 52.3127 145.312 62.3877 142.987C72.4627 140.662 82.6668 139.5 93.0002 139.5C103.333 139.5 113.495 140.662 123.483 142.987C133.472 145.312 144.925 149.316 157.842 155C163.525 157.583 167.917 161.286 171.017 166.108C174.117 170.93 175.667 176.355 175.667 182.383V206.666H10.3335ZM25.8335 191.166H160.167V182.383C160.167 179.627 159.392 177.001 157.842 174.504C156.292 172.006 154.225 170.155 151.642 168.95C139.414 163.266 129.081 159.52 120.642 157.712C112.203 155.904 102.989 155 93.0002 155C83.0113 155 73.7543 155.904 65.2293 157.712C56.7043 159.52 46.3279 163.266 34.1002 168.95C31.5168 170.155 29.4932 172.006 28.0293 174.504C26.5654 177.001 25.8335 179.627 25.8335 182.383V191.166ZM93.0002 108.241C99.7168 108.241 105.271 106.045 109.663 101.654C114.054 97.262 116.25 91.7079 116.25 84.9912C116.25 78.2745 114.054 72.7204 109.663 68.3287C105.271 63.937 99.7168 61.7412 93.0002 61.7412C86.2835 61.7412 80.7293 63.937 76.3377 68.3287C71.946 72.7204 69.7502 78.2745 69.7502 84.9912C69.7502 91.7079 71.946 97.262 76.3377 101.654C80.7293 106.045 86.2835 108.241 93.0002 108.241Z" fill="#AA0C00"/>
</g>
</svg>
